# xmcd CD database file
#
# Track frame offsets:
#	150
#	10346
#	32817
#	49065
#	63940
#	89258
#	104030
#	123621
#	139673
#	163232
#	179668
#	202924
#	216283
#
# Disc length: 3036 seconds
#
# Revision: 0
# Processed by: cddbd v1.4PL0 Copyright (c) Steve Scherf et al.
# Submitted via: CDex 1.40Release
#
DISCID=c10bda0d
DTITLE=Thomas Scheytt - Inner Voices
DYEAR=2003
DGENRE=Blues
TTITLE0=Invitation To The Blues
TTITLE1=South Of The Blues
TTITLE2=Hell Valey Stomp
TTITLE3=Ticino Boogie
TTITLE4=Loretto Infirmary
TTITLE5=Gilliflower Rag
TTITLE6=Lost In Thought
TTITLE7=Flying Fingers Boogie
TTITLE8=Inner Voices
TTITLE9=Something You Got
TTITLE10=Just For You
TTITLE11=Tribute To Meade Lux Lewis
TTITLE12=Goin' Home Blues
EXTD=YEAR: 2003 ID3G: 0
EXTT0=
EXTT1=
EXTT2=
EXTT3=
EXTT4=
EXTT5=
EXTT6=
EXTT7=
EXTT8=
EXTT9=
EXTT10=
EXTT11=
EXTT12=
PLAYORDER=
